# xmcd
#
# Track frame offsets: 
#        150
#        21670
#        41875
#        59725
#        76845
#        93235
#        113097
#        130740
#        145712
#        168325
#
# Disc length: 2498 seconds
#
# Revision: 3
# Processed by: cddbd v1.5.2PL0 Copyright (c) Steve Scherf et al.
# Submitted via: ExactAudioCopy v0.99pb4
#
DISCID=8509c00a
DTITLE=Etta James - Summer Heat
DYEAR=1900
DGENRE=Blues
TTITLE0=Respect Yourself
TTITLE1=I'd Rather Go Blind
TTITLE2=Shake Yo' Bottle
TTITLE3=Dust My Broom
TTITLE4=Summer Heat
TTITLE5=Drown In My Own Tears
TTITLE6=Can't Turn You Loose
TTITLE7=Rock Me Baby
TTITLE8=Stormy Monday
TTITLE9=Baby What You Want Me To Do
EXTD=
EXTT0=
EXTT1=
EXTT2=
EXTT3=
EXTT4=
EXTT5=
EXTT6=
EXTT7=
EXTT8=
EXTT9=
PLAYORDER=
